# xmcd
#
# Track frame offsets:
#	150
#	19677
#	34947
#	55245
#	70240
#	89085
#	113625
#	135437
#	152310
#
# Disc length: 2343 seconds
#
# Revision: 8
# Processed by: cddbd v1.5.2PL0 Copyright (c) Steve Scherf et al.
# Submitted via: EasyCDDAExtractor 12.0.1.1
#
DISCID=6d092509
DTITLE=Chayanne - Tiempo De Vals
DYEAR=1990
DGENRE=Latin
TTITLE0=Completamente Enamorados
TTITLE1=Daria Cualquier Cosa
TTITLE2=Simon Sez
TTITLE3=Soleil, Soleil
TTITLE4=Tiempo De Vals
TTITLE5=Donde Vas
TTITLE6=La Fuerza De Amar
TTITLE7=Sueño Perdido
TTITLE8=No Pensar En Ti
EXTD=YEAR: 1990
EXTT0=
EXTT1=
EXTT2=
EXTT3=
EXTT4=
EXTT5=
EXTT6=
EXTT7=
EXTT8=
PLAYORDER=
